<?xml version="1.0" encoding="UTF-8" standalone="no"?>
<!DOCTYPE svg PUBLIC "-//W3C//DTD SVG 1.1//EN" "http://www.w3.org/Graphics/SVG/1.1/DTD/svg11.dtd">
<svg xmlns="http://www.w3.org/2000/svg" xmlns:xlink="http://www.w3.org/1999/xlink" version="1.1" width="1839.4507pt" height="798.39419pt" viewBox="0 0 1839.4507 798.39419">
<g enable-background="new">
<g id="Layer-1" data-name="Layer 1">
<path transform="matrix(2.7777777,0,0,-2.7777777,2.7777777,795.6164)" d="M 0 107.5867 L 28.7796 110.6059 C 29.3947 102.7721 30.6709 96.8108 32.5848 92.6836 C 35.6839 86.0346 40.1499 82.7481 45.9374 82.7481 C 50.2447 82.7481 53.5714 84.4296 55.9185 87.8304 C 58.2423 91.2317 59.4045 95.1676 59.4045 99.6386 C 59.4045 103.8801 58.3112 107.7015 56.0778 111.0645 C 53.8449 114.427 48.6947 117.599 40.5828 120.5796 C 27.3212 125.5856 17.8645 132.1963 12.2136 140.4887 C 6.5169 148.7809 3.6683 159.3281 3.6683 172.1676 C 3.6683 180.6129 5.1267 188.5997 8.0436 196.0894 C 10.9602 203.5794 15.3349 209.4642 21.1912 213.7822 C 27.0476 218.0622 35.0685 220.2021 45.2543 220.2021 C 57.7641 220.2021 67.3115 216.3044 73.874 208.5089 C 80.4368 200.7133 84.333 188.2939 85.5865 171.2891 L 57.0804 168.4993 C 56.3284 175.8745 54.7336 181.2626 52.2952 184.6253 C 49.8796 187.95 46.5301 189.6313 42.2691 189.6313 C 38.7371 189.6313 36.0938 188.4084 34.3165 185.8864 C 32.5389 183.4027 31.6502 180.3455 31.6502 176.7535 C 31.6502 174.1547 32.3799 171.8237 33.8377 169.7221 C 35.2735 167.544 38.6461 165.5569 44.0008 163.6843 C 57.217 158.9077 66.6737 154.0545 72.3929 149.163 C 78.1123 144.2718 82.2824 138.234 84.8801 130.9734 C 87.478 123.7513 88.7992 115.6499 88.7992 106.67 C 88.7992 96.1611 87.0446 86.455 83.5812 77.5891 C 80.1179 68.6857 75.2644 61.96 69.0208 57.3744 C 62.8002 52.7888 54.9386 50.4961 45.4595 50.4961 C 28.8249 50.4961 17.295 55.8456 10.8918 66.6221 C 4.4663 77.36 .843 91.002 0 107.5867 " fill="white"/>
<path transform="matrix(2.7777777,0,0,-2.7777777,2.7777777,795.6164)" d="M 90.091 182.3414 L 115.8225 182.3414 L 128.3357 99.707 L 141.264 182.3414 L 166.208 182.3414 L 138.8191 51.9123 L 116.9201 51.9123 Z " fill="white"/>
<path transform="matrix(2.7777777,0,0,-2.7777777,2.7777777,795.6164)" d="M 244.5248 104.7382 L 195.0086 104.7382 C 195.4437 96.6886 196.5209 90.735 198.22 86.794 C 200.6025 81.1341 203.7308 78.3252 207.5635 78.3252 C 209.9877 78.3252 212.3079 79.541 214.4837 82.0148 C 215.8302 83.5656 217.2594 86.2909 218.793 90.2319 L 243.1361 85.7038 C 239.4071 72.5814 234.9317 63.1902 229.6695 57.4883 C 224.4073 51.8284 216.866 48.9776 207.0252 48.9776 C 198.489 48.9776 191.7768 51.4091 186.8664 56.2725 C 181.9772 61.1359 177.9168 68.8921 174.7054 79.4991 C 171.4938 90.1063 169.878 102.5578 169.878 116.8963 C 169.878 137.272 173.1098 153.7906 179.5533 166.3682 C 186.0171 178.9877 194.9261 185.3184 206.2998 185.3184 C 215.5192 185.3184 222.8119 182.4676 228.1365 176.8073 C 233.4818 171.1896 237.5629 162.9723 240.3397 152.2811 C 243.1361 141.5486 244.5248 127.5871 244.5248 110.3978 Z M 219.4143 128.6773 C 218.9169 138.3622 217.6325 145.2798 215.5612 149.4303 C 213.4684 153.6231 210.7338 155.7193 207.3356 155.7193 C 203.3994 155.7193 200.2711 152.5329 197.909 146.2439 C 196.4177 142.3029 195.4647 136.4754 195.0707 128.6773 Z " fill="white"/>
<path transform="matrix(2.7777777,0,0,-2.7777777,2.7777777,795.6164)" d="M 280.0057 221.4425 L 280.0057 174.5521 L 293.5967 174.5521 L 293.5967 140.0975 L 280.0057 140.0975 L 280.0057 96.3757 C 280.0057 91.1083 280.2753 87.6234 280.7929 85.9204 C 281.6008 83.3066 283.0099 81.9601 285.0403 81.9601 C 286.8636 81.9601 289.4117 82.9899 292.6854 85.0093 L 294.5081 52.3766 C 288.3966 49.8419 282.6992 48.5748 277.3953 48.5748 C 271.2419 48.5748 266.7047 50.0797 263.8043 53.0892 C 260.8829 56.0993 258.7283 60.6932 257.3402 66.8319 C 255.9314 72.9703 255.2479 82.9502 255.2479 96.732 L 255.2479 140.0975 L 246.1317 140.0975 L 246.1317 174.5521 L 255.2479 174.5521 L 255.2479 197.2052 Z " fill="white"/>
<path transform="matrix(2.7777777,0,0,-2.7777777,2.7777777,795.6164)" d="M 374.5035 113.22 C 374.5035 133.0923 377.8186 149.527 384.4483 162.398 C 391.0989 175.3109 400.049 181.7674 411.3403 181.7674 C 424.2475 181.7674 434.0055 174.1791 440.5938 159.044 C 445.8974 146.8437 448.5495 131.7926 448.5495 113.9323 C 448.5495 93.8925 445.2551 77.4578 438.6878 64.6285 C 432.1202 51.8414 423.0249 45.4269 411.4023 45.4269 C 401.0434 45.4269 392.6733 50.7515 386.2715 61.4004 C 378.4192 74.5648 374.5035 91.8383 374.5035 113.22 Z M 399.2615 113.3456 C 399.2615 101.6904 400.4218 93.0957 402.7632 87.5616 C 405.0833 81.9856 408.0047 79.1768 411.5265 79.1768 C 415.0902 79.1768 418.011 81.9437 420.2901 87.4358 C 422.5898 92.9279 423.7296 101.6904 423.7296 113.8487 C 423.7296 125.1264 422.5689 133.5538 420.2694 139.0876 C 417.9696 144.58 415.1109 147.3471 411.7127 147.3471 C 408.1082 147.3471 405.1244 144.538 402.7836 138.9617 C 400.4425 133.344 399.2615 124.791 399.2615 113.3456 " fill="white"/>
<path transform="matrix(2.7777777,0,0,-2.7777777,2.7777777,795.6164)" d="M 460.4411 178.7907 L 483.4585 178.7907 L 483.4585 157.5765 C 486.898 166.2551 490.3781 172.4182 493.9004 176.1494 C 497.4225 179.8809 501.7113 181.7674 506.766 181.7674 C 513.6032 181.7674 518.9482 177.6169 522.8226 169.3996 C 526.6757 161.1822 528.6027 148.479 528.6027 131.2897 L 528.6027 48.3616 L 503.7829 48.3616 L 503.7829 120.0957 C 503.7829 128.2708 503.0374 134.0566 501.5455 137.4525 C 500.0326 140.8904 497.9404 142.5674 495.2265 142.5674 C 492.2427 142.5674 489.7984 140.2617 487.9545 135.6917 C 486.0899 131.1219 485.1575 122.8626 485.1575 110.9976 L 485.1575 48.3616 L 460.4411 48.3616 Z " fill="white"/>
<path transform="matrix(2.7777777,0,0,-2.7777777,2.7777777,795.6164)" d="M 544.2653 228.4302 L 568.982 228.4302 L 568.982 194.387 L 544.2653 194.387 Z M 544.2653 178.7907 L 568.982 178.7907 L 568.982 48.3616 L 544.2653 48.3616 Z " fill="white"/>
<path transform="matrix(2.7777777,0,0,-2.7777777,2.7777777,795.6164)" d="M 584.7477 228.4302 L 610.003 228.4302 L 610.003 135.5661 L 628.4625 178.7907 L 658.8763 178.7907 L 635.7345 133.0923 L 660.2023 48.3616 L 632.3369 48.3616 L 619.2848 100.6841 L 610.003 82.279 L 610.003 48.3616 L 584.7477 48.3616 Z " fill="white"/>
<path transform="matrix(2.7777777,0,0,-2.7777777,2.7777777,795.6164)" d="M 331.8123 281.5889 L 315.2188 265.1448 L 318.6629 265.0005 L 318.5586 235.2864 L 315.0102 235.2864 L 315.0102 225.4776 L 326.6983 225.4776 L 318.5552 220.3452 L 316.3272 191.4154 L 345.5887 209.0378 L 344.5441 225.6219 L 348.4054 225.6219 L 348.4054 235.1421 L 344.8573 235.1421 L 344.8043 264.9864 L 348.2578 264.9498 Z M 331.3757 262.4822 C 335.5308 262.4822 338.9006 257.8246 338.9006 252.0822 C 338.9006 246.3392 335.5308 241.6819 331.3757 241.6819 C 327.221 241.6819 323.8515 246.3392 323.8515 252.0822 C 323.8515 257.8246 327.221 262.4822 331.3757 262.4822 " fill="white" fill-rule="evenodd"/>
<path transform="matrix(2.7777777,0,0,-2.7777777,2.7777777,795.6164)" d="M 346.4246 197.4821 L 348.7235 167.1489 L 312.9831 146.0602 L 315.0731 178.9934 Z " fill="white" fill-rule="evenodd"/>
<path transform="matrix(2.7777777,0,0,-2.7777777,2.7777777,795.6164)" d="M 349.5597 155.3046 L 351.8589 119.7711 L 309.0118 93.7712 L 311.7288 132.7711 Z " fill="white" fill-rule="evenodd"/>
<path transform="matrix(2.7777777,0,0,-2.7777777,2.7777777,795.6164)" d="M 353.5311 100.4156 L 307.5486 72.9711 L 304.6226 35.7046 C 282.102 35.3684 259.9123 30.4571 237.9487 22.4158 C 277.5977 25.2026 313.8871 15.0973 348.5143 1.8394 C 386.4132 -3.9654 414.2594 4.5873 438.2175 18.8237 C 415.5435 10.364 389.0767 14.002 359.157 28.6529 L 357.2986 44.0461 L 340.1447 32.5066 C 330.7436 35.3656 319.9601 35.8367 308.8891 35.8115 L 355.6253 65.4386 Z " fill="white" fill-rule="evenodd"/>
<path transform="matrix(2.7777777,0,0,-2.7777777,2.7777777,795.6164)" d="M 6.4086 281.3102 L 14.4128 281.3102 L 14.4128 265.5264 L 30.2369 265.5264 L 30.2369 281.3102 L 38.2703 281.3102 L 38.2703 242.2913 L 30.2369 242.2913 L 30.2369 259.5654 L 14.4128 259.5654 L 14.4128 242.2913 L 6.4086 242.2913 Z M 82.1299 276.3711 C 78.8114 276.3711 76.1366 275.0584 74.1059 272.4341 C 72.0754 269.8007 71.0603 266.3045 71.0603 261.9275 C 71.0603 257.5312 72.0663 254.0169 74.0863 251.3642 C 76.1068 248.7212 78.7918 247.3994 82.1299 247.3994 C 85.4589 247.3994 88.1529 248.7305 90.193 251.3832 C 92.2331 254.0356 93.2488 257.55 93.2488 261.9275 C 93.2488 266.2855 92.2331 269.7817 90.193 272.4157 C 88.1529 275.0491 85.4589 276.3711 82.1299 276.3711 Z M 82.1299 282.1632 C 88.0943 282.1632 92.7998 280.3541 96.2359 276.7272 C 99.6814 273.1 101.3995 268.1323 101.3995 261.8152 C 101.3995 255.4787 99.6917 250.5112 96.2651 246.9027 C 92.8485 243.2942 88.1331 241.4951 82.1299 241.4951 C 76.1366 241.4951 71.441 243.2942 68.0247 246.9027 C 64.6174 250.5112 62.9093 255.4787 62.9093 261.8152 C 62.9093 268.1697 64.6174 273.1465 68.044 276.755 C 71.4603 280.3637 76.1559 282.1632 82.1299 282.1632 Z M 122.1335 281.3102 L 151.702 281.3102 L 151.702 275.2929 L 140.8666 275.2929 L 140.8666 242.2913 L 132.8323 242.2913 L 132.8323 275.2929 L 122.1335 275.2929 Z M 174.1246 281.3102 L 198.9488 281.3102 L 198.9488 275.7053 L 182.1294 275.7053 L 182.1294 265.3577 L 198.0703 265.3577 L 198.0703 259.6218 L 182.1294 259.6218 L 182.1294 248.1959 L 199.5542 248.1959 L 199.5542 242.2913 L 174.1246 242.2913 Z M 224.7687 281.3102 L 232.7737 281.3102 L 232.7737 248.2526 L 249.0752 248.2526 L 249.0752 242.2913 L 224.7687 242.2913 Z " fill="white"/>
<path transform="matrix(2.7777777,0,0,-2.7777777,2.7777777,795.6164)" d="M 271.3462 270.0746 L 266.4408 273.4503 L 261.5355 270.0746 L 263.2303 275.783 L 258.5035 279.4051 L 264.4566 279.5573 L 266.4408 285.1719 L 268.4251 279.5573 L 274.3778 279.4051 L 269.6513 275.783 Z " fill="white" fill-rule="evenodd"/>
<path transform="matrix(2.7777777,0,0,-2.7777777,2.7777777,795.6164)" stroke-width=".5" stroke-linecap="round" stroke-linejoin="round" fill="none" stroke="white" d="M 271.3462 270.0746 L 266.4408 273.4503 L 261.5355 270.0746 L 263.2303 275.783 L 258.5035 279.4051 L 264.4566 279.5573 L 266.4408 285.1719 L 268.4251 279.5573 L 274.3778 279.4051 L 269.6513 275.783 Z "/>
<path transform="matrix(2.7777777,0,0,-2.7777777,2.7777777,795.6164)" d="M 296.4138 270.0746 L 291.5084 273.4503 L 286.6028 270.0746 L 288.2976 275.783 L 283.5711 279.4051 L 289.5239 279.5573 L 291.5084 285.1719 L 293.4927 279.5573 L 299.4454 279.4051 L 294.719 275.783 Z " fill="white" fill-rule="evenodd"/>
<path transform="matrix(2.7777777,0,0,-2.7777777,2.7777777,795.6164)" stroke-width=".5" stroke-linecap="round" stroke-linejoin="round" fill="none" stroke="white" d="M 296.4138 270.0746 L 291.5084 273.4503 L 286.6028 270.0746 L 288.2976 275.783 L 283.5711 279.4051 L 289.5239 279.5573 L 291.5084 285.1719 L 293.4927 279.5573 L 299.4454 279.4051 L 294.719 275.783 Z "/>
</g>
</g>
</svg>
