<svg xmlns="http://www.w3.org/2000/svg" xmlns:xlink="http://www.w3.org/1999/xlink" version="1.1" width="596.1293pt" height="277.1735pt" viewBox="0 0 596.1293 277.1735">
<defs>
<clipPath id="clip_0">
<path transform="matrix(1,0,0,-1,10,267.1735)" d="M-9-9H586V267H-9Z" fill-rule="evenodd"/>
</clipPath>
</defs>
<g clip-path="url(#clip_0)">
<g id="layer_1" data-name="Layer 1">
<path transform="matrix(1,0,0,-1,10,267.1735)" d="M0 103.3659 24.8859 105.9763C25.418 99.2024 26.5212 94.0479 28.1761 90.4791 30.856 84.7295 34.7179 81.8878 39.7222 81.8878 43.4466 81.8878 46.3235 83.3417 48.3528 86.2826 50.3623 89.2236 51.3672 92.6269 51.3672 96.493 51.3672 100.1608 50.4218 103.4651 48.4906 106.3729 46.5599 109.2807 42.1067 112.0235 35.0921 114.6005 23.6248 118.9293 15.4477 124.6456 10.5613 131.8161 5.6353 138.9864 3.1723 148.1066 3.1723 159.209 3.1723 166.5113 4.4331 173.4177 6.9557 179.894 9.4774 186.3706 13.2605 191.4591 18.3243 195.1929 23.3881 198.894 30.3239 200.7442 39.1314 200.7442 49.9487 200.7442 58.2043 197.3738 63.879 190.633 69.5537 183.8923 72.923 173.1532 74.0066 158.449L49.3577 156.0368C48.7071 162.4141 47.3284 167.0732 45.22 169.9809 43.1311 172.8558 40.2347 174.3097 36.5505 174.3097 33.4962 174.3097 31.2106 173.2524 29.6736 171.0714 28.1367 168.9239 27.3682 166.2803 27.3682 163.1741 27.3682 160.9271 27.9989 158.9117 29.2598 157.0941 30.5014 155.2107 33.4176 153.4927 38.0477 151.8732 49.4756 147.7429 57.653 143.5465 62.5983 139.3169 67.5439 135.0873 71.1496 129.8665 73.3961 123.5883 75.6425 117.3433 76.7849 110.338 76.7849 102.5731 76.7849 93.486 75.2678 85.0932 72.273 77.4269 69.2779 69.728 65.0812 63.9122 59.6823 59.9474 54.3033 55.982 47.5055 53.9994 39.3089 53.9994 24.925 53.9994 14.9553 58.6253 9.4184 67.9436 3.8622 77.2288 .7294 89.0252 0 103.3659" fill="white"/>
<path transform="matrix(1,0,0,-1,10,267.1735)" d="M77.9017 168.006H100.152L110.9721 96.5523 122.1511 168.006H143.7202L120.037 55.224H101.101Z" fill="white"/>
<path transform="matrix(1,0,0,-1,10,267.1735)" d="M211.4405 100.9026H168.624C169.0002 93.9421 169.9316 88.7941 171.4008 85.3863 173.461 80.4923 176.1661 78.0633 179.4801 78.0633 181.5763 78.0633 183.5827 79.1147 185.4641 81.2537 186.6285 82.5948 187.8644 84.9515 189.1905 88.359L210.2397 84.4438C207.0153 73.0967 203.1457 64.976 198.5953 60.0457 194.0451 55.1514 187.524 52.6864 179.0147 52.6864 171.6335 52.6864 165.8296 54.7892 161.5836 58.9944 157.3557 63.1998 153.8447 69.9066 151.0676 79.0784 148.2908 88.2505 146.8936 99.0173 146.8936 111.4157 146.8936 129.0345 149.6883 143.3183 155.2598 154.194 160.8489 165.1062 168.5526 170.5802 178.3874 170.5802 186.3595 170.5802 192.6655 168.1152 197.2695 163.2209 201.8917 158.3631 205.4208 151.2575 207.8215 142.0129 210.2397 132.7326 211.4405 120.6601 211.4405 105.7966ZM189.7277 121.6029C189.2976 129.9773 188.1867 135.959 186.3958 139.5479 184.5862 143.1731 182.2215 144.9859 179.2831 144.9859 175.8796 144.9859 173.1745 142.2306 171.1321 136.7926 169.8426 133.3848 169.0183 128.3457 168.6776 121.6029Z" fill="white"/>
<path transform="matrix(1,0,0,-1,10,267.1735)" d="M242.121 201.8166V161.2706H253.8731V131.4777H242.121V93.6714C242.121 89.117 242.354 86.1035 242.8016 84.6309 243.5 82.3706 244.7184 81.2066 246.4744 81.2066 248.0508 81.2066 250.2541 82.097 253.0848 83.8431L254.6612 55.6257C249.3763 53.4339 244.4499 52.338 239.8637 52.338 234.5428 52.338 230.6197 53.6394 228.1116 56.2419 225.5854 58.8447 223.7224 62.8169 222.522 68.125 221.3039 73.4329 220.7129 82.0624 220.7129 93.9796V131.4777H212.83V161.2706H220.7129V180.8589Z" fill="white"/>
<path transform="matrix(1,0,0,-1,10,267.1735)" d="M323.833 108.2367C323.833 125.4203 326.6997 139.6315 332.4322 150.7609 338.1829 161.9269 345.9223 167.5097 355.6857 167.5097 366.8465 167.5097 375.2844 160.9481 380.9812 147.8608 385.5674 137.3114 387.8606 124.2967 387.8606 108.8529 387.8606 91.5245 385.0118 77.3133 379.3331 66.2199 373.6542 55.1631 365.7895 49.6162 355.7395 49.6162 346.782 49.6162 339.5443 54.2203 334.0089 63.4283 327.219 74.812 323.833 89.748 323.833 108.2367ZM345.2414 108.3455C345.2414 98.2672 346.2446 90.8354 348.2691 86.0499 350.2755 81.2285 352.8014 78.7995 355.8467 78.7995 358.9282 78.7995 361.4539 81.1922 363.4245 85.9414 365.4133 90.6905 366.3989 98.2672 366.3989 108.7807 366.3989 118.5324 365.3952 125.8194 363.407 130.6046 361.4182 135.3538 358.9464 137.7465 356.008 137.7465 352.891 137.7465 350.3112 135.3175 348.287 130.4957 346.2625 125.638 345.2414 118.2424 345.2414 108.3455" fill="white"/>
<path transform="matrix(1,0,0,-1,10,267.1735)" d="M398.1433 164.9358H418.0465V146.592C421.0203 154.0964 424.0298 159.4253 427.0757 162.652 430.1209 165.8784 433.8295 167.5097 438.2002 167.5097 444.1124 167.5097 448.7343 163.9208 452.0846 156.8154 455.4164 149.7095 457.0824 138.7253 457.0824 123.8615V52.1541H435.6207V114.1824C435.6207 121.2514 434.9761 126.2543 433.686 129.1907 432.3781 132.1634 430.5688 133.6136 428.222 133.6136 425.6422 133.6136 423.5284 131.6197 421.9342 127.6682 420.3218 123.7167 419.5154 116.5748 419.5154 106.3154V52.1541H398.1433Z" fill="white"/>
<path transform="matrix(1,0,0,-1,10,267.1735)" d="M470.6257 207.8589H491.9984V178.422H470.6257ZM470.6257 164.9358H491.9984V52.1541H470.6257Z" fill="white"/>
<path transform="matrix(1,0,0,-1,10,267.1735)" d="M505.6311 207.8589H527.4694V127.5593L543.4311 164.9358H569.73L549.7191 125.4203 570.8767 52.1541H546.7813L535.4952 97.397 527.4694 81.4822V52.1541H505.6311Z" fill="white"/>
<path transform="matrix(1,0,0,-1,10,267.1735)" d="M286.918 253.8252 272.5696 239.6061 275.5477 239.4814 275.4575 213.7876H272.3893V205.306H282.496L275.4547 200.8681 273.528 175.8523 298.8306 191.0906 297.9272 205.4305H301.2661V213.6628H298.1979L298.1523 239.4692 301.1386 239.4374ZM286.5404 237.3038C290.1334 237.3038 293.0471 233.2763 293.0471 228.3109 293.0471 223.3449 290.1334 219.3177 286.5404 219.3177 282.9478 219.3177 280.0344 223.3449 280.0344 228.3109 280.0344 233.2763 282.9478 237.3038 286.5404 237.3038" fill="white" fill-rule="evenodd"/>
<path transform="matrix(1,0,0,-1,10,267.1735)" d="M299.5532 181.0984 301.5411 154.8692 270.6364 136.6339 272.4437 165.111Z" fill="white" fill-rule="evenodd"/>
<path transform="matrix(1,0,0,-1,10,267.1735)" d="M302.2642 144.6273 304.2524 113.9017 267.2025 91.4196 269.5518 125.1428Z" fill="white" fill-rule="evenodd"/>
<path transform="matrix(1,0,0,-1,10,267.1735)" d="M305.6981 97.1651 265.9371 73.4338 263.4069 41.2095C243.9337 40.9187 224.746 36.6718 205.7542 29.7187 240.0386 32.1282 271.4182 23.3904 301.3603 11.9262 334.1316 6.9069 358.2099 14.3022 378.9264 26.6125 359.3203 19.2974 336.4345 22.443 310.5629 35.1116L308.956 48.4223 294.1231 38.444C285.9939 40.9161 276.6694 41.3235 267.0962 41.3016L307.5092 66.9203Z" fill="white" fill-rule="evenodd"/>
<path transform="matrix(1,0,0,-1,10,267.1735)" d="M447.645 49.3509V1.1237H431.0232V6.2887C428.6846 4.0992 426.57 2.6169 424.6486 1.842 422.087 .8427 419.2421 .3373 416.0996 .3373 409.7846 .3373 404.9589 2.1453 401.6225 5.7609 398.3014 9.3764 396.6333 13.7784 396.6333 18.9547 396.6333 24.7487 398.465 29.173 402.1588 32.2384 405.8376 35.3151 410.5142 36.8535 416.1739 36.8535 418.9442 36.8535 421.4466 36.4941 423.7104 35.7979 425.9594 35.0906 427.9552 34.0464 429.7127 32.6426V49.3509ZM429.8321 18.6854C429.8321 21.4364 429.0724 23.4799 427.5232 24.8272 425.9891 26.1748 424.038 26.8486 421.6847 26.8486 419.6146 26.8486 417.8869 26.1972 416.4871 24.906 415.0865 23.6146 414.3869 21.4475 414.3869 18.3934 414.3869 15.5412 415.1166 13.4527 416.5461 12.1277 417.9912 10.8026 419.7781 10.1401 421.8934 10.1401 424.1721 10.1401 426.0637 10.8026 427.5677 12.1388 429.0871 13.4864 429.8321 15.6645 429.8321 18.6854" fill="white"/>
<path transform="matrix(1,0,0,-1,10,267.1735)" d="M462.1059 18.9496C462.1059 24.5044 464.358 29.0982 468.8626 32.6959 473.3807 36.3053 479.4616 38.1098 487.1327 38.1098 495.9017 38.1098 502.5314 35.9889 507.0076 31.7585 510.6107 28.3482 512.4127 24.141 512.4127 19.1489 512.4127 13.5471 510.1744 8.9532 505.7127 5.3674 501.2507 1.7932 495.0714 .0003 487.175 .0003 480.1371 .0003 474.4505 1.4882 470.101 4.4651 464.7665 8.1448 462.1059 12.9728 462.1059 18.9496ZM478.9267 18.9848C478.9267 15.7269 479.7147 13.3245 481.3053 11.7777 482.8819 10.2192 484.8664 9.4337 487.2591 9.4337 489.6805 9.4337 491.665 10.2073 493.2133 11.7425 494.7758 13.2775 495.5499 15.7269 495.5499 19.1254 495.5499 22.2778 494.7616 24.6334 493.1994 26.1802 491.6367 27.7155 489.6947 28.4888 487.3859 28.4888 484.9367 28.4888 482.9102 27.7036 481.3191 26.1451 479.7286 24.5747 478.9267 22.1839 478.9267 18.9848" fill="white"/>
<path transform="matrix(1,0,0,-1,10,267.1735)" d="M525.8228 18.7815C525.8228 24.2872 528.0746 28.8403 532.5795 32.406 537.0976 35.9836 543.1782 37.7722 550.8493 37.7722 559.6186 37.7722 566.248 35.6698 570.7242 31.4768 574.3276 28.0967 576.1293 23.927 576.1293 18.9791 576.1293 13.4269 573.8913 8.8739 569.429 5.3195 564.9673 1.777 558.7883 0 550.8916 0 543.8537 0 538.1671 1.4751 533.8176 4.4254 528.4834 8.0722 525.8228 12.858 525.8228 18.7815ZM542.6433 18.8164C542.6433 15.5871 543.4316 13.2063 545.0221 11.6731 546.5985 10.1282 548.583 9.3501 550.976 9.3501 553.3971 9.3501 555.3816 10.1166 556.9299 11.6382 558.4927 13.1598 559.2665 15.5871 559.2665 18.9556 559.2665 22.0802 558.4785 24.4148 556.916 25.9478 555.3536 27.4694 553.4113 28.2362 551.1025 28.2362 548.6533 28.2362 546.6266 27.4581 545.036 25.9132 543.4455 24.3567 542.6433 21.9872 542.6433 18.8164" fill="white"/>
<path transform="matrix(1,0,0,-1,10,267.1735)" d="M5.5417 253.5843H12.4631V239.936H26.1462V253.5843H33.0925V219.8449H26.1462V234.7815H12.4631V219.8449H5.5417ZM71.0178 249.3133C68.1483 249.3133 65.8355 248.1783 64.0794 245.9092 62.3239 243.6321 61.446 240.6087 61.446 236.8239 61.446 233.0226 62.3157 229.9836 64.0624 227.6901 65.8097 225.4045 68.1313 224.2619 71.0178 224.2619 73.8964 224.2619 76.2259 225.4127 77.9902 227.7065 79.7542 230 80.6323 233.0391 80.6323 236.8239 80.6323 240.5923 79.7542 243.6157 77.9902 245.893 76.2259 248.1704 73.8964 249.3133 71.0178 249.3133ZM71.0178 254.3219C76.1754 254.3219 80.244 252.7577 83.2153 249.6214 86.1948 246.4849 87.6804 242.1893 87.6804 236.7269 87.6804 231.2478 86.2036 226.9525 83.2405 223.8321 80.2862 220.712 76.2089 219.1561 71.0178 219.1561 65.8355 219.1561 61.7751 220.712 58.8209 223.8321 55.8748 226.9525 54.3977 231.2478 54.3977 236.7269 54.3977 242.2219 55.8748 246.5252 58.8379 249.6453 61.7919 252.7659 65.8522 254.3219 71.0178 254.3219ZM105.609 253.5843H131.1769V248.381H121.8076V219.8449H114.8601V248.381H105.609ZM150.5656 253.5843H172.031V248.7376H157.4872V239.7903H171.2713V234.8306H157.4872V224.9504H172.5545V219.8449H150.5656ZM194.3575 253.5843H201.2794V224.9994H215.3752V219.8449H194.3575Z" fill="white"/>
<path transform="matrix(1,0,0,-1,10,267.1735)" d="M234.633 243.8688 230.3912 246.7879 226.1497 243.8688 227.6152 248.8048 223.528 251.9371 228.6754 252.0686 230.3912 256.9235 232.107 252.0686 237.2545 251.9371 233.1675 248.8048Z" fill="white" fill-rule="evenodd"/>
<path transform="matrix(1,0,0,-1,10,267.1735)" stroke-width=".5" stroke-linecap="round" stroke-linejoin="round" fill="none" stroke="white" d="M234.633 243.8688 230.3912 246.7879 226.1497 243.8688 227.6152 248.8048 223.528 251.9371 228.6754 252.0686 230.3912 256.9235 232.107 252.0686 237.2545 251.9371 233.1675 248.8048Z"/>
<path transform="matrix(1,0,0,-1,10,267.1735)" d="M256.3089 243.8688 252.0672 246.7879 247.8254 243.8688 249.2909 248.8048 245.2039 251.9371 250.3514 252.0686 252.0672 256.9235 253.783 252.0686 258.9304 251.9371 254.8434 248.8048Z" fill="white" fill-rule="evenodd"/>
<path transform="matrix(1,0,0,-1,10,267.1735)" stroke-width=".5" stroke-linecap="round" stroke-linejoin="round" fill="none" stroke="white" d="M256.3089 243.8688 252.0672 246.7879 247.8254 243.8688 249.2909 248.8048 245.2039 251.9371 250.3514 252.0686 252.0672 256.9235 253.783 252.0686 258.9304 251.9371 254.8434 248.8048Z"/>
</g>
</g>
</svg>
