<?xml version="1.0" standalone="no"?>
<!DOCTYPE svg PUBLIC "-//W3C//DTD SVG 20010904//EN"
 "http://www.w3.org/TR/2001/REC-SVG-20010904/DTD/svg10.dtd">
<svg version="1.0" xmlns="http://www.w3.org/2000/svg"
 width="3508.000000pt" height="2480.000000pt" viewBox="0 0 3508.000000 2480.000000"
 preserveAspectRatio="xMidYMid meet">

<g transform="translate(0.000000,2480.000000) scale(0.100000,-0.100000)"
fill="#92253f" stroke="none">
<path d="M17065 19260 c-368 -368 -397 -400 -369 -400 17 0 52 -3 78 -6 l46
-7 0 -733 0 -734 -90 0 -90 0 0 -245 0 -245 292 0 292 0 -198 -125 c-110 -68
-201 -126 -203 -128 -3 -3 -112 -1374 -113 -1419 0 -8 1407 836 1429 857 12
11 11 66 -8 367 -11 194 -24 377 -27 406 l-5 52 95 0 96 0 0 235 0 235 -85 0
-85 0 0 603 c0 332 -3 665 -7 740 l-6 137 89 0 89 0 -405 405 c-223 223 -407
405 -410 405 -3 0 -185 -180 -405 -400z m510 -564 c151 -69 249 -260 249 -486
0 -225 -92 -407 -245 -486 -77 -39 -171 -40 -250 -1 -153 75 -249 262 -249
486 0 164 47 301 135 399 107 119 229 148 360 88z"/>
<path d="M28000 16195 l0 -845 610 0 610 0 0 845 0 845 -610 0 -610 0 0 -845z"/>
<path d="M30000 12580 l0 -4460 625 0 625 0 0 841 0 841 220 437 c121 241 226
445 233 455 10 13 68 -206 336 -1279 l323 -1295 684 0 c441 0 684 3 684 10 0
5 -268 938 -596 2072 -328 1135 -598 2077 -601 2094 -4 25 85 209 557 1140
309 610 566 1117 572 1127 8 16 -29 17 -742 15 l-752 -3 -450 -1055 c-247
-580 -454 -1059 -459 -1065 -5 -5 -9 918 -9 2288 l0 2297 -625 0 -625 0 0
-4460z"/>
<path d="M14293 16085 l-613 -600 0 -557 0 -558 -225 0 -225 0 0 -850 0 -850
224 0 224 0 5 -1352 c5 -1337 9 -1524 43 -1863 43 -436 133 -749 282 -974 159
-241 393 -345 772 -345 185 0 340 22 527 75 113 32 292 96 307 109 9 9 -74
1574 -84 1590 -3 5 -55 -15 -115 -46 -243 -121 -370 -107 -443 48 -57 119 -55
71 -59 1466 l-4 1292 336 0 335 0 0 850 0 850 -335 0 -335 0 -2 1158 -3 1157
-612 -600z"/>
<path d="M3045 16620 c-362 -30 -661 -120 -887 -265 -407 -263 -697 -719 -842
-1326 -101 -417 -119 -860 -55 -1304 93 -641 362 -1135 815 -1495 260 -207
541 -358 1009 -545 547 -217 736 -370 841 -679 54 -159 70 -374 39 -549 -32
-181 -121 -366 -229 -472 -181 -178 -468 -216 -716 -94 -69 34 -101 59 -170
129 -206 208 -318 519 -375 1039 -8 73 -16 135 -17 137 -4 4 -1409 -144 -1414
-149 -5 -5 13 -235 31 -397 65 -562 204 -1051 416 -1460 110 -212 186 -319
323 -456 275 -274 605 -420 1096 -486 152 -20 609 -17 745 5 564 93 957 347
1267 822 275 420 450 980 499 1599 15 192 6 668 -15 826 -77 564 -240 990
-505 1320 -81 102 -247 266 -344 341 -264 205 -674 415 -1187 609 -408 154
-491 195 -597 294 -70 65 -129 171 -154 276 -20 81 -14 258 10 355 76 295 272
443 556 421 307 -23 507 -228 610 -623 23 -88 52 -246 70 -374 l6 -47 37 5
c20 2 334 33 696 68 362 36 661 67 664 70 8 8 -15 251 -39 419 -92 640 -280
1125 -557 1441 -256 291 -612 471 -1051 531 -136 18 -434 25 -576 14z"/>
<path d="M17430 15049 c-421 -248 -769 -455 -774 -460 -7 -6 -118 -1619 -112
-1625 1 0 395 232 876 517 481 285 878 519 882 521 5 2 -63 953 -104 1461 l-3
37 -765 -451z"/>
<path d="M11080 14889 c-472 -61 -865 -380 -1144 -929 -264 -518 -417 -1158
-466 -1940 -22 -357 -10 -961 25 -1315 80 -794 314 -1535 625 -1977 207 -294
456 -461 807 -539 282 -62 679 -41 955 51 207 69 349 157 503 314 234 235 442
629 613 1156 72 222 82 260 71 260 -10 0 -1123 205 -1167 215 -20 5 -26 -1
-44 -47 -46 -112 -139 -286 -183 -341 -55 -69 -157 -146 -228 -173 -36 -13
-77 -19 -132 -19 -69 0 -89 5 -145 32 -116 55 -194 141 -277 302 -100 196
-170 512 -190 859 l-6 112 1228 0 1228 0 -6 403 c-11 697 -50 1165 -133 1614
-148 803 -464 1430 -867 1717 -141 100 -338 183 -522 220 -175 35 -393 45
-545 25z m342 -1470 c93 -31 151 -75 218 -165 115 -153 188 -389 234 -749 13
-102 36 -360 36 -402 0 -11 -115 -13 -605 -13 l-605 0 0 38 c0 80 32 373 55
507 29 171 63 291 117 414 137 312 332 444 550 370z"/>
<path d="M5513 14718 c3 -18 300 -1467 661 -3221 361 -1753 656 -3190 656
-3192 0 -3 244 -4 542 -3 l542 3 676 3220 676 3220 -610 3 c-335 1 -612 0
-614 -3 -3 -3 -148 -916 -322 -2028 -174 -1112 -319 -2029 -322 -2037 -3 -8
-9 5 -12 30 -4 25 -143 943 -310 2040 l-302 1995 -633 3 -634 2 6 -32z"/>
<path d="M21190 14706 c-515 -91 -921 -484 -1216 -1175 -190 -446 -307 -964
-360 -1591 -22 -255 -25 -904 -6 -1145 61 -758 198 -1309 454 -1819 267 -533
602 -847 1023 -958 115 -30 129 -31 320 -32 158 -1 218 3 285 17 447 96 796
393 1064 908 280 537 437 1182 487 2007 15 251 6 885 -15 1122 -75 812 -275
1487 -584 1965 -239 372 -544 599 -922 687 -111 25 -418 34 -530 14z m378
-1716 c166 -84 304 -332 381 -685 105 -485 107 -1393 5 -1919 -99 -510 -341
-802 -606 -731 -254 67 -434 429 -503 1015 -51 434 -40 1119 25 1505 67 398
207 688 385 797 61 38 93 46 176 47 65 1 84 -3 137 -29z"/>
<path d="M25978 14710 c-127 -22 -287 -99 -398 -193 -174 -148 -364 -450 -535
-852 l-60 -140 -3 528 -2 527 -565 0 -565 0 0 -3230 0 -3230 610 0 609 0 4
1823 c3 1970 2 1910 57 2224 53 298 179 530 322 594 78 34 165 33 240 -4 141
-69 227 -244 275 -561 16 -101 17 -289 20 -2093 l4 -1983 615 0 615 0 -4 2293
c-3 1600 -7 2330 -15 2417 -49 540 -96 806 -193 1087 -85 249 -191 427 -343
578 -164 164 -312 226 -530 224 -61 -1 -132 -5 -158 -9z"/>
<path d="M28000 11350 l0 -3230 610 0 610 0 0 3230 0 3230 -610 0 -610 0 0
-3230z"/>
<path d="M17415 12854 c-511 -305 -931 -557 -932 -562 -5 -14 -133 -1887 -131
-1900 2 -8 409 233 1053 624 578 350 1052 638 1054 640 5 5 -97 1626 -107
1700 l-7 52 -930 -554z"/>
<path d="M17410 10013 l-1136 -677 -68 -871 c-37 -478 -70 -893 -73 -921 l-5
-51 -162 -7 c-959 -41 -1836 -211 -2863 -558 -133 -45 -241 -83 -239 -85 1 -1
101 2 222 8 235 12 742 6 1004 -11 1252 -84 2485 -376 4035 -955 194 -73 252
-85 585 -119 402 -41 1007 -47 1350 -11 902 92 1721 356 2529 816 86 48 108
64 79 54 -7 -2 -49 -15 -93 -29 -760 -238 -1618 -215 -2559 70 -348 106 -801
284 -1091 429 l-100 50 -45 373 c-24 204 -48 372 -53 372 -4 0 -196 -126 -425
-280 l-417 -279 -107 29 c-298 79 -730 128 -1153 131 -93 1 -195 4 -226 8
l-56 6 1141 723 c627 398 1147 727 1154 731 10 6 3 172 -38 852 -27 464 -51
852 -53 862 -1 14 -238 -122 -1137 -660z"/>
<path d="M25660 7479 c0 -264 -3 -479 -7 -477 -5 2 -41 25 -82 52 -356 236
-954 249 -1336 29 -252 -145 -392 -337 -451 -620 -27 -128 -25 -375 4 -500 76
-330 289 -597 570 -714 178 -74 425 -109 633 -89 298 28 473 102 679 285 l55
49 3 -147 3 -147 474 0 475 0 0 1380 0 1380 -510 0 -510 0 0 -481z m-338 -820
c74 -16 152 -56 210 -108 87 -78 128 -191 128 -351 -1 -204 -53 -326 -177
-411 -93 -64 -256 -94 -375 -70 -134 28 -255 124 -297 236 -66 175 -42 453 47
565 44 54 119 106 186 129 70 23 194 28 278 10z"/>
<path d="M28686 7300 c-422 -48 -756 -213 -963 -475 -151 -190 -223 -419 -209
-660 18 -320 178 -586 469 -784 82 -55 267 -139 377 -169 429 -120 1001 -95
1355 60 502 219 752 670 649 1174 -73 361 -375 660 -790 782 -185 55 -324 74
-579 77 -126 2 -266 0 -309 -5z m349 -540 c188 -27 324 -155 372 -346 39 -159
13 -419 -53 -532 -116 -198 -402 -271 -630 -160 -178 86 -264 273 -251 543 6
116 23 189 63 268 62 121 183 204 334 226 77 12 86 12 165 1z"/>
<path d="M32330 7279 c-103 -11 -264 -44 -363 -75 -324 -103 -600 -330 -719
-592 -136 -299 -108 -666 71 -930 241 -355 686 -545 1276 -544 417 0 724 78
988 251 94 62 228 192 287 280 128 191 187 427 161 651 -26 220 -86 361 -228
530 -193 232 -504 378 -908 425 -137 16 -434 18 -565 4z m452 -558 c80 -31
168 -98 206 -159 86 -133 112 -346 66 -550 -48 -217 -215 -343 -454 -343 -319
-1 -495 214 -477 581 9 174 50 285 136 369 55 54 127 95 202 116 79 22 246 15
321 -14z"/>
</g>
</svg>
