<?xml version="1.0" encoding="utf-8"?>

<!DOCTYPE svg PUBLIC "-//W3C//DTD SVG 1.1//EN" "http://www.w3.org/Graphics/SVG/1.1/DTD/svg11.dtd">
<svg fill='grey' version="1.1" id="Layer_1" xmlns="http://www.w3.org/2000/svg" xmlns:xlink="http://www.w3.org/1999/xlink" x="0px" y="0px"
	 viewBox="0 0 2614 958" style="enable-background:new 0 0 2614 958;" xml:space="preserve">
<path d="M1168.4,13.7l1.2,0c-0.4,10,1,19.9,1.8,29.9c2.3,1.8,5.9,2.9,6.2,6.3c0.1,4.8-2,9.2-2.2,14c11.7,12.8,42.2,29.9,46,36.2
	c-1.3,2.3-3.9,4.1-3.8,7c0,1-0.6,39,0.6,43.3c5.7,1.7,57.1-0.3,65.2,1.1c-0.4,5.4-0.9,10.8,0.1,16.1c0.1,7.1-1.7,14.3-0.2,21.3
	c1.5,0.9,3.4,1.3,4.7,2.6c0.4,2.8,0.4,5.7,0,8.5c-9.5,1.8-19.3,0.6-28.9,1.8c-0.9,10.3,32.6,397.6,40.6,421.6
	c2.8,10.1,7.1,19.8,9.5,30c2.9,2.7,7.8-1.4,27.9,0.5c3.6,1.9,3.2,0.8,8.8,63.6c2.7,0.2,5.6,0.5,8.3-0.3c1.3-1.6,2-3.6,3.6-4.9
	c3.3-1.5,6.9-0.1,10.3-0.1c0.1-2,0.9-43.1-1-55.5c3.7-3.2,9.8-3.5,14.2-1.4c0.4,5.8,0.4,11.6,1.3,17.3c1.1,6.7-1.3,13.3-0.1,19.9
	c1.1,8.3-0.1,16.6,0.6,24.9c43.7,1.8,33.4-0.6,41.1-5.1c3.7,1.3,7,4.2,11,4.6c4-0.1,8.1-0.4,12.1,0.3c5.9,1,11.7-1.6,17.6-0.2
	c8.4,1.5,16.9-1.1,25.3,0.3c4.5-0.1,9.8,1.8,13.7-1.4c5.1-4.5,12.5-2.9,18.4-5.6c6.8-2.6,13.4,3.1,20.3,1.7
	c4.7-0.8,9.7-1.9,14.3-0.1c3.5,1.1,6.9,3.5,10.7,2.4c3.6-0.9,7,1,10.4,1.7c12.7,2.2,25.3-2.6,38.1-0.7c3.6,0.6,6.9,2.7,10.6,2.9
	c6-3.6,12.6-7.7,19.9-5.6c10.8,9,4.1,23.7,27.1,31.8c4.8-2.2,8.8-6.9,14.5-6.8c3.2,0.9,6,3.1,9.5,2.9c8.1,0.3,13-8.6,21.1-8.7
	c18.9,2.1,16.4,8.7,20.6,17.7c3.3-2.3,6.2-5.1,9.6-7.3c3.5-1,7.3-0.8,10.9-0.2c6.1,6.6,13.6,13.7,13.6,23.5c-4,3.8-10,2.5-15,3.7
	c-9.1,2-18.2-1.6-27.3,0.8c-13.2,3.6-26.8-1.1-40.2,1c-7.1,0.5-14.2,0-21.2-0.7c-29,6.3-131,1.8-140.8,4.1c-2.8,7.9,2,15.2,4.6,22.4
	c0.2-4-0.1-8,0.4-11.9c1.3-2.1,3.4-3.9,6-3.1c4.8,4.9,1.9,12.6,5.5,18.1c-1.3,1.2-2.7,2.3-3.8,3.6c1.9-0.9,3.8-1.9,5.9-2.7
	c7.3,3.1,6.3,12.1,9.5,18.2c-1.3,1.2-2.8,2.2-4.1,3.3c5.2,3.2,9.6,8.3,16,9.1c8.9,1.4,18,1.1,26.9,2.9c3.3,0.5,6.5,1.5,9.9,1.3
	c4.4-1.5,8.5-4.1,13.2-4.6c3.4-0.8,6.3,2,9.7,2c1,2.5,1.9,5.3,4.5,6.7c6.1,0.7,11.9-2.7,18-2.6c4,0.3,7.5,2.9,11.5,2.8
	c3.3,0,6.6,0.2,9.5,2c5.1,3,11.3,3.1,16.1,6.5c6.7,4.4,14.4,6.8,21.4,10.7c4.7,2.8,10.5,3.1,14.8,6.7c8.2,6.2,12.7,2.1,30.9,15.5
	c5.5,4.1,12.4,6,17.6,10.5c3.7,3,6,7.4,9.6,10.6c3.9,0.8,8.4-0.8,10.7-4c1.6-5.5,2.7-11.3,2.4-17.1c-0.7-0.4-1.9-1.1-2.6-1.4
	c3.2-2.5,4.5-6.4,6.7-9.6c13.7-12,17-7.7,24.1-9c5.6-8.5,5.4-18.1,20.5-18.9c8.5,0.1,16.9,2.2,25.5,2.3c4.6-0.2,8.3,2.7,12.2,4.7
	c8.1-4.1,5.4-11.3,43.5-9.9c5.9,0.4,9,5.8,13,9.3c5.1,2,10.4,3.6,15.9,4.3c0.1-0.4,0.3-1.2,0.4-1.6c-4.1-2.6-8.9-3.7-13.3-5.5
	c-2-1.9-2.5-4.9-2.4-7.5c2.2-0.5,4.3-1.1,6.6-1.4c2,6.9,10,6.3,15.8,6c0-2.4-1.6-5.1-0.3-7.2c2.4-1.3,5.4-1.1,8-0.5
	c3.3,3.7,6.8,7.9,7.2,13.1c-0.5,2.2-1.5,4.3-2.1,6.4c3.8,2.6,7.3,6.2,11.6,7.9c8.9-0.6,17.9,0.9,26.9,0.2c-0.3-0.4-1-1.3-1.3-1.7
	c-15.1-4.3-21.9,2.1-25.9-4.7c4-2.5,9.2-0.5,13.1-3.2c4.5-3.1,6.8-8.3,11.3-11.4c2.7-2.2,6.1-3.6,8.8-5.9c0.1-3.8-0.3-8,2.3-11.2
	c4.3-1.3,8.8-0.8,13.1-0.1c-2.8,2.7-6.5,4.1-9.5,6.6c1.7,2.9,6.1,5,5.2,8.9c-2.7,8.3-10.8,12.9-14.7,20.4c2.2,5.6,8.8,3.7,13.5,3.9
	c12.1-1.1,8.1,4.4,30.8-3.2c3.2-4.8,9.8-4.2,14.7-6.1c0.6-1.2,1.3-2.3,2-3.5c1.7,0.5,3.3,1.3,5.1,1.9c0.2-1.5,0.3-3,0.8-4.4
	c0.7-0.1,2.1-0.2,2.9-0.2c-3.2-4.5-5.7-9.6-5.6-15.3c0.5-5.5-6.5-7.8-6.7-13.1c0.8-1.9,2-3.7,3.3-5.3c2.3-0.4,5.6-1.1,7,1.4
	c3.8,5.1,4.9,12.5,10.8,15.9c3.1,1.6,4.7,4.6,6.2,7.6c2.7-2.6,6.1-5.9,5.9-9.9c-14.5-3.9-18.2-12.8-15.2-21.2
	c0.6-4.1,5.3-5.4,8.7-6.1c5.1-1.3,6,6.1,10.6,6.3c7.7,0.5,15.2,2.7,22.9,3.5c-1.6,1.3-3.5,2.1-5.3,3c0.1,3.7,5.9,4.2,6.9,7.9
	c1.9,6.3,10,5.9,13,11.4c-2.5-0.1-4.9-0.5-7.3-0.6c-2.4-0.2-4.5,3-6.9,1.3c-2.7-1-5.1-4-8.1-3.1c-1.4,2.6-2.8,5.2-3.5,8.1
	c2.4,1,5,1.8,7.4,3c2,1.9,2.9,5.4,5.9,6c0.1-1,0.3-3,0.3-4.1c7.1-5.6,14.7,2.9,11.2,5.1c4.5,0.7,9.1,1.3,13.7,1.3
	c0.4-4.3,0.6-8.7,1.1-13c-3.5-0.1-7,0.1-10.5-0.2c5.1-2.4,11.2-2.2,15.9-5.7c5.5-3.7,11.5-8.1,18.6-5.9c1,3.4,3.2,6,5.5,8.6
	c0.1,5.4-3.7,9.9-3.8,15.3c1.5-1.7,2.4-4.4,4.8-5.1c3.6-0.6,7.3-0.2,11-0.8c3.4-1.9,5.5-5.3,8.2-7.9c2-1.9,4.7-3,6.9-4.7
	c0.7-1.7,1.2-3.5,1.9-5.2c14.8-5.1,17,5.1,14.3,8.9c-4,10.8-16,8.8-11.8,19.5c4.9,2.3,10.5,1.7,15.7,1.8c6.9,0.3,1.2-1.1,14.1,7
	c2.9,2.4,2.8,6.6,4.6,9.7c0.7-0.4,2-1.3,2.7-1.8c2,1.1,3.5,3,5.6,4c5-3.1,10.3,1.6,15,3.2c1.5,1.1,2.9-0.3,3.9-1.4
	c1,0.7,1.8,1.4,2.8,2.2c-0.1-0.7-0.2-2.2-0.3-3c2.7,0.1,5.5,0.6,8.3,0.8c-2.9-2.6-7.9-2.4-9.6-6.4c-0.1-4.5,1.7-10.4-2.9-13.2
	c-2.6-1.4-3-4.2-2.1-6.8c3.2-1,6.7-0.9,9.8,0.7c3.1,1,3.2,4.7,4.7,7.1c2.3,4.3,7.5,5.4,11.7,7.1c4.4,1.4,7.3,5.4,11.7,6.7
	c1.9,0.6,16.8,3.8,15.8,9.3c-11.2,3.4-15.8-2.7-33.3,3.3c0.1,0.7,0.3,2.2,0.4,3c5.2,3.8,11.1,6.2,17,8.6c7.6,6.8,9.7,3.9,33.2,7.5
	c1.2-2.6,1.8-5.5,1.3-8.3c-5.1-2.2-11.4-3.7-13.7-9.3c-4.8-5.9,1.6-12.1,3-18c-0.7-1.9-1.9-3.7-2.7-5.5c3.2-3.2,8.4-1.4,11.8,0.7
	c1.9,1.9,1.8,5.1,3.2,7.4c5.4,1.4,11.1,1.9,16.4,3.7c1.8,0.5,15.4,6.8,16.6,13.1c-5.9,1.6-11.7,3.2-17.7,4.2
	c-4.8,3.6-9.1,7.9-13.5,11.9c0,0.4,0.1,1.1,0.1,1.5c4.9,0.5,9.8,1.4,14.8,1.4c12.4-12.1,18.4-10.1,27.4-14.1
	c5.6-0.5,11.5,0.8,16.8-1.8c10.8-5.2,26.9,18.5,37.4,10.8c3.9-2.8,8.5-3.8,13.1-4.8c0.4-3.5,0.5-7,0.2-10.5c-5-0.4-9.7-1.9-14.5-2.9
	c-5.4,0.5-10.7,1.7-16.1,1.3c0.9-1,1.9-1.9,3-2.8c-3.7-0.1-7.3,0.2-10.9-0.1c0.1-0.5,0.3-1.6,0.3-2.1c3.6-1.4,7.9-1.2,10.9-3.9
	c8.3-8.8,29-10.3,33-16.1c-1.9-0.6-4.1-0.1-5.5-1.5c1.8-0.2,3.7-0.2,5.6-0.4c0.7-6.6,19.3-4.2,21.5,5.4c-2.3-0.4-4.4-1-6.6-1.4
	c0.8,4.2,6.7,16-14.7,23.4c-0.7,3.1-0.6,6.4,0,9.5c3.6,1.8,7.6,2.9,11.7,3.3c4.1,0.1,7.2,3.3,10.9,4.6c7.5-2.2,15.2-6.3,23.2-4.1
	c5.6,1.7,11.9,0.3,15.8-4.1c-3.4,0.6-6.8,1.6-10.2,2.1c0.5-4.1,1.9-8,3.4-11.8c1.8,0.4,3,1.7,4.5,2.8c-0.9-2.8-2.3-8.6,2.5-8.1
	c0.3,1,0.8,3.1,1.1,4.1c2.4-2.2,1.6-6.5,4.9-8c10.3,4.5,2.7,10.8,1.6,12.7c-0.8-2.2-1.9-4.4-4.4-4.9c-1,1.5-1.9,3.2-1.3,5
	c3.8,2.9,9.2,3.7,13.9,4.2c0.4-0.9,1.1-2.7,1.4-3.7c1.3-0.3,2.5-0.1,3.7,0.5c0.6,1.8,0.9,3.7,1.5,5.6c20.1,1.5,15.6,4.1,22.1,0.3
	c-2.9-3.9-6.5-7.5-6.7-12.6c-2.7,0.2-5.4,1.6-6.1,4.4c-0.7-0.1-1.9-0.4-2.6-0.5c-0.9-1.6-1-3.5-0.4-5.2c0.8-0.3,2.4-1,3.2-1.3
	c0.1-2.2-1.1-4.5-0.1-6.5c3.9-1,7.9-2.3,11.9-2.5c2.1,1.9,4.8,2.5,7.5,2.9c-1.8,4.2-5.3,7.1-7.9,10.8c0.3,0.7,0.9,2,1.2,2.7
	c2.2-1.3,3.5-3.5,5.1-5.4c0.4,3.1,0.9,6.2,1.5,9.2c-1.4-0.9-2.8-1.8-4.2-2.6c-3.6,0.7-1.3,4.6-0.7,6.8c1,3.4,4.9,3.9,7.6,5.5v2.5
	c-3.6-1.7-3.6,4.1,0,2.6v1.3c-2.9-1.6-2.8,3,0,1.1v34.5c-2.6-0.1-42.3,0.8-48-0.3c-16.8-2.7-33.8-1.8-50.7-1.9
	c-6.8-0.1-13.7,1.3-20.3-0.8c-5.9-2-12.2-1.4-18.4-1.4c-119.7-0.2-79.6,0-94.9-4.1c-17.7-1.3-1020.8,1.3-1046.7-5.4
	c-43.3-10.4-154.5-5.5-161.8-7.6c-4.2-1.3-8.1,1.8-12.3,1.2c-19.3-2.2-141.1-0.7-146.9-3.7c0-0.8,0.1-2.5,0.1-3.3
	c11.2-5.2,24.4-3,35.6-8.5c8.4-1.9,15.5-7.7,24.3-7.9c4.1-0.2,6.5,4.5,10.6,4.2c5.6,1.3,49.9-37.5,52.9-39.3c5.7-3.3,17,1.1,28.9-11
	c5.5-5.8,14.2-5.9,20.8-9.9c7.5-3.7,12.3-11.2,20.1-14.3c3.1-1.6,7.4-2.4,8.7-6.1c2.6-6.1-1.5-12.1-3.4-17.7c-1.9,1-3.6,2.8-5.8,2.9
	c-0.7-4.5-2.3-20.7,2.4-21.3c4.9-0.8,10-0.9,14.9-0.2c1,1,11.1,15.9,11.7,18.5c1.2,7.1,1.4,14.3,3.3,21.2c2.9,2.1,6.5,3,9.4,5.2
	c8.1,5.7,18.1,8,25.8,14.2c4.3,3.6,6.6,9.5,12,11.9c4.7,2.2,9.8,4.6,15.2,4c2.7-0.1,3.6-3,4.3-5.1c1.6-6.4-4.9-5.7,0.9-23
	c4.4-3.9,10.3-4.3,15.9-3.8c3.8-2.9,6.2-7.3,9.5-10.7c4.3-4,3.8-10.5,7.8-14.8c-2.2-4.5-6-7.9-9.1-11.7c-0.8-3.2-0.7-6.6-1.4-9.9
	c-3.7-3.7-9-5.7-14.2-4.6c-11.6,2-23.1-1.6-34.7-1.2c-1,0-1207,14.5-1226.6,13v-64.2c3.6-3.2,5.6-8.4,10.7-9.6
	c2.3-5,7.4-7.9,12.4-9.8c7.5-2.3,14.9,1.4,22.3,2.3c11.7,1.2,9.7,12.3,17.5,18.8c5.3,0.1,5.7-6.8,10.1-8.4c4.6-2.3,9.9-6.5,15-2.9
	c6.3-2.7,13.2-2.5,19.9-3.3c11.4,1.5,21,8.8,31.9,11.6c5-1.7,9.4-5.1,14.9-5c6.2,0.2,11.8-2.8,17.4-5c2.6,1.2,2.7,6.2,6.3,5.6
	c7.3,0.7,12.7-6.5,20-5.5c4.1,0.8,8.2,0,12.3-0.3c7.5,0.1,13.8,5.3,21.3,5.4c3.3,0.1,6.2,1.7,9.3,2.5c3.4-1.8,5.5-5.3,8.6-7.6
	c11.6-3.3,14.8,5,22.1,5.1c5.2,1.1,10.2-0.9,15.3-1.9c0.3,0.4,0.9,1.1,1.2,1.4c5.1-6.2,10.9-19.9,45.6-9.8c2.7,1.9,4.2,5.1,6.5,7.4
	c0.8-5.4,6.4-7.5,11.2-7.7c3.5,1.1,7.2,2.2,9.9,4.7c2.5,3.2,3.7,8.8,8.8,8.3c5.9-2.4,11.1-6.4,17.3-8.1c16.1-4.5,50.4-7.1,51.4-7.3
	c5.6-1.3,11,1.5,16.6,1.4c3.5,0.7,7.8-0.2,10.6,2.3c-0.1,1.3-0.3,2.6-0.7,3.9c2.8-3.1,7.1-2.8,10.9-2.6c0.1,0.5,0.3,1.5,0.3,2
	c1.1,0.2,2.2,0.4,3.3,0.5c0.2,0.6,0.5,1.7,0.7,2.3c3.6,0.8,7.2,1.6,10.8,2.4c18-7.2,15.5-9.9,20.5-14.4c4.5-2.3,9.4,0.3,13.1,2.9
	c4.6,4.5,6.2,12.6,13.4,14c6.9,0.7,13.9-0.3,20.8-0.8c4-0.3,7.6-2.1,11.2-3.5c8.5-1.5,17.3,1.2,25.7-0.9c8.7-2.2,17.9-2.4,26.8-1.5
	c2.3,1.9,3.8,5.1,7.2,5.1c6.6,1.6,13.4-0.4,20.1-0.2c4.6-0.2,9.2,0.6,13.8,0.7c5.6,0.1,11.5-1.6,16.8,1c5.5-2,10.9-4.1,16.7-5.1
	c3.7-0.6,7.1-3.1,10.9-2.9c1.7,2,3.1,4.3,5.1,6.1c3.5,0.4,7.3,1.1,10.6-0.6c4.8-3.1,11.3-2.6,16.1,0.4c6.5,1.3,13.5,0.8,19.5-2.2
	c11.9,3.6-6.1,2.5,44.1,2.7c3.8,0.6,7-3.3,10.6-1.4c6.4,2.7,30.8-1.4,31.8-1.5c3.4-0.4,6.6-3.8,10-1.7c4.7,2.6,10.2,2.4,15.3,1.9
	c11.7-5.9,12.7,0.2,15.4-8.5c1.5-0.4,3-0.9,4.5-1.2c-0.1-5.8,1.2-11.8,0.7-17.4c-4.4-1.4-9.2-0.3-13.7-0.9
	c-0.3-3.8-0.5-7.6,0.2-11.4c4-4.3,9.4-6.9,13.9-10.5c0.6-3.5,0.2-7.1,0.9-10.6c7.7-6.2,42.9-30.9,47.2-35.9
	c0.9-5.4-0.4-10.9,0.9-16.2c8.1-1.7,16.4,0.2,24.5-0.9c16.7-3.1,52.3,0.7,55.8,0.1c1-1.7,33.2-390.5,32.1-398
	c-4.4-0.8-8.7-1.8-12.9-3.3c-5-2.5-10.7,1.4-15.6-1.4c-0.4-2.7-0.7-5.6-0.2-8.3c1.5-1,3.1-1.8,4.6-2.8c1-12.6-2.3-25.1-0.8-37.7
	c8.4-0.6,16.8,0.2,25.2-0.2c3.1,0.1,5.6-2.7,8.7-2.1c10.2,1.6,20.5,0.3,30.8,0.5c2.6-7.7,1.8-38.7,1.8-39.7c0.1-4.4-2.6-8-4.1-11.9
	c7.9-6.9,37.6-25.7,45-35.3c-0.2-5-3.3-9.9-1.9-15c1.5-2.6,4.1-4.1,6.1-6.3C1169,32.9,1167.8,23.2,1168.4,13.7 M1167.1,107.1
	c-0.2,12.4-0.2,24.7,0,37.1c8.8,0.2,17.6,0.2,26.4,0c0.2-12.4,0.2-24.7,0-37.1C1184.7,106.9,1175.9,106.9,1167.1,107.1
	 M1196.4,107.1c-0.2,12.4-0.2,24.7,0,37.1c5.3,0.3,10.5,0.3,15.8,0c0.2-12.4,0.2-24.7,0-37.1C1207,106.8,1201.7,106.8,1196.4,107.1
	 M1128.8,113.9c-0.9,10.1-0.4,20.2-0.4,30.3c3,0.3,6.1,0.3,9.1,0c0.1-10.9,0.3-21.9-0.1-32.9
	C1135.3,107.8,1128.8,109.6,1128.8,113.9 M1151.1,109.8c-1.1,11.4-0.8,22.9-1.3,34.4c4.8,0.2,10,1,14.3-1.5
	c0.3-10.4,0.3-20.9,0-31.3C1160.2,108.9,1155.4,109.5,1151.1,109.8 M1141.8,112.3c-0.2,10.8-0.3,21.7,0.5,32.4
	c1.6-0.9,3.1-0.1,2-32.4C1143.6,112.3,1142.4,112.3,1141.8,112.3 M1255.1,155.2c-0.3,3.9-0.3,7.8,0,11.7c8.3,0.2,16.7,0.2,25.1,0
	c0.3-4.4,0.3-8.7,0-13.1C1271.8,152.9,1263.5,154.2,1255.1,155.2 M1060.7,155.1c-2.3,3.8-2.7,9.1,0.1,12.8c2.2,0.9,4.6,2.1,7,1.2
	c4.4-1.3,9-0.6,13.5-1c1.5-3.7,2.8-7.5,2.9-11.5c-2.3-0.7-4.5-1.3-6.9-0.9C1071.8,156.3,1066.3,155,1060.7,155.1 M1219.1,155
	c-0.3,4-0.3,8,0,12c1.7,0.1,3.4,0.1,5.1,0c0.2-3.4,0.4-6.9-0.1-10.3C1223.2,154.6,1221,154.9,1219.1,155 M1227.1,155
	c-0.3,4-0.3,7.9,0,11.9c2.1,0.2,4.2,0.2,6.3,0c0.5-3.9,1.5-8,0-11.8C1231.3,154.9,1229.2,154.9,1227.1,155 M1237.9,155.1
	c-0.2,3.5-0.7,6.9-1.4,10.3c0.4,0.3,1.1,1,1.5,1.3c4.7,0.5,9.5,0.3,14.2,0.1c0.3-3.9,0.3-7.9,0-11.8
	C1247.4,154.8,1242.7,154.8,1237.9,155.1 M1093.8,156.4c-0.3,3.9-0.3,7.9,0,11.8c3,0.2,6.1,0.2,9.1,0c0.3-3.9,0.3-7.9,0-11.8
	C1099.9,156.2,1096.8,156.2,1093.8,156.4 M1105.8,156.4c-0.3,3.9-0.3,7.9,0,11.9c2.6-0.1,6.1,1.1,7.7-1.7c0.4-3.4,0.3-6.8,0.1-10.2
	C1111,156.2,1108.4,156.2,1105.8,156.4 M1116.5,156.3c-0.3,3.5-0.3,7.1,0,10.6c1.7,0.1,3.4,0.1,5.1,0c0.3-3.5,0.3-7.1,0-10.6
	C1119.8,156.2,1118.1,156.2,1116.5,156.3 M1088.7,162.1c-1,1.7-1,4.1,0,5.8C1090.6,167.5,1090.6,162.4,1088.7,162.1 M1268.8,170.4
	c-4.5,0.8-9.1,0.5-13.7,0.7c-0.2,6.1-0.2,12.3,0,18.5c8.4,0.2,16.7,0.2,25.1,0c0.2-6.1,0.3-12.1-0.1-18.2
	C1276.8,168.9,1272.6,169.9,1268.8,170.4 M1060.4,171.1c0,6.5-0.3,13,0.1,19.5c3.5,3.5,9.8,1.5,14-0.1c2-6,4.1-12,5.5-18.1
	c-4.1-0.2-8.1-1.5-12.3-0.9C1065.3,171.9,1062.8,171.6,1060.4,171.1 M1219.3,171c-0.9,6.1-2.8,12.6,0.1,18.5
	c1.6,0.2,3.2,0.2,4.8,0.1c0.2-5.6,0.4-11.3-0.1-17C1223.2,170.7,1221.1,170.8,1219.3,171 M1227.1,171.1c-0.2,6.2-0.2,12.3,0,18.5
	c2.6-0.1,5.9,0.9,7.7-1.5c-1.4-5.6-1.9-11.6-0.2-17.2C1232.1,170.8,1229.6,170.9,1227.1,171.1 M1237.9,171.1
	c-0.5,6.1-0.9,12.3,0.1,18.4c4.7,0.3,9.5,0.3,14.3,0c0.2-6.1,0.2-12.3,0-18.4C1247.4,170.8,1242.6,170.8,1237.9,171.1 M1088.5,172.6
	C1086.4,176.7,1092.8,172.9,1088.5,172.6 M1093.4,174.9c3.2,0.2,6.4,0.2,9.5,0c0-0.6,0-1.9,0-2.5
	C1099.7,172.5,1094.9,170.9,1093.4,174.9 M1105.5,174.9c2.7,0.1,5.5,0.2,8.2-0.1c0-0.6,0-1.9-0.1-2.5
	C1110.7,172.3,1106.6,171.3,1105.5,174.9 M1116.3,172.3c0,0.6,0,1.9,0,2.6c1.7,0.1,3.5,0.1,5.3,0c0-0.6,0-1.9,0-2.6
	C1119.9,172.2,1118.1,172.2,1116.3,172.3 M1083.2,180.5c-0.7,1.9-0.1,2.5,1.8,1.8C1085.7,180.4,1085.1,179.8,1083.2,180.5
	 M1098.1,180.4c-0.2,0.9-0.7,2.6-0.9,3.4c-0.9,0.2-2.6,0.7-3.4,0.9c0,0.8-0.1,2.5-0.1,3.3c1.8,1.4,3.9,2.8,6.3,2.9
	c2.2-3,3.1-6.9,3-10.6C1101.4,180.2,1099.7,180.2,1098.1,180.4 M1088.4,185.6c-0.1,1.8-0.1,3.5,0,5.3c1.7,0.1,3.5,0.1,5.3,0.1
	c-0.4-1.8-0.9-3.5-1.6-5.1C1091.1,185.8,1089.3,185.6,1088.4,185.6 M1080.3,191c2.7,0.6,6.1-0.8,5.4-4.1
	C1083,186.3,1079.5,187.7,1080.3,191 M1005.6,617.8c0.1-2.3,0-4.6,0-6.9c2.6,0.1,0.1,5.5,3.9,4.1c0.1-2.3,0.1-4.5,0.2-6.7
	c1.3,0.7,1.8,2.2,1.6,4.2c0.6-0.5,1.7-1.4,2.3-1.9c0.1-1.6,0.2-3.1,0.1-4.7c-2.1,0-4.3,0-6.4,0c-0.1,0.9-0.3,2.7-0.4,3.6l-1,0
	c-0.1-1-0.3-3-0.4-4C1001,607.8,1003.1,614.9,1005.6,617.8 M1015.3,605.9c-1.7,1.3-0.1,5.1,2,3.5
	C1019,608.1,1017.4,604.3,1015.3,605.9 M1019.3,606C1020.1,606.7,1020.1,606.7,1019.3,606 M971.1,608.7c-0.3,2.1-0.3,4.2-0.1,6.3
	c0.6,0,1.9,0,2.5,0c0.2-2.7,0.1-5.5,0.1-8.2C973,607.2,971.7,608.2,971.1,608.7 M975.4,607.4c-0.7,2.3-1.5,6.9,0.5,8.4
	C976.7,613.5,977.4,608.9,975.4,607.4 M980.7,607.4c-1,1-1.3,4.4,0.7,4.4C982.3,610.8,982.6,607.4,980.7,607.4 M984.7,607.3
	C985.4,608,985.4,608,984.7,607.3 M999.1,607c-0.2,2.3-0.2,4.6-0.1,6.9c3.1-1,2.8-4.2,2.6-6.8C1001,607,999.7,607,999.1,607
	 M1042,607.3C1042.7,608,1042.7,608,1042,607.3 M1044.4,607c-0.1,2.3-0.1,4.6-0.1,6.9c-1.6-1.7-2.4-4.7-5.2-4.3
	c-0.3,3.5-0.4,7,0.1,10.4c1.4,2.2,4.3,1.2,6.5,1.1c0.1-4.7,0-9.4-0.1-14.1L1044.4,607 M991.3,608.8c-1,1-1.2,4.4,0.7,4.4
	C992.9,612.1,993.2,608.7,991.3,608.8 M1023.3,608.4c-0.1,1-0.3,3.1-0.4,4.1c-0.8-1.5-1.9-3.1-3.8-2.9c-0.2,1.7-0.2,3.5-0.2,5.2
	c1.8-0.4,3.5-0.9,5.3-1.6c0.2-1.6,0.3-3.3,0.3-4.9L1023.3,608.4 M1025.7,608.3c-0.1,1.7-0.1,3.5,0,5.3c0.6,0,1.9,0,2.6,0
	c0.1-1.8,0.1-3.5,0-5.3C1027.7,608.3,1026.4,608.3,1025.7,608.3 M1034.2,616.8c3.1-1.7,2-5.8,2.2-8.7
	C1033.2,609.7,1034.9,613.9,1034.2,616.8 M1047.4,608.7c-1,1.7-1,4.1,0,5.8C1049.2,614.2,1049.2,609.1,1047.4,608.7 M984.7,612.7
	c-1,1.7-1,4.1,0,5.8C986.6,618.1,986.6,613.1,984.7,612.7 M1015.5,612.6c-1.1,1.2-1.5,4.3,0.5,4.8
	C1018.6,617,1018.5,611,1015.5,612.6 M1012.7,615.2c-1.7,0.6-2.5,3.1-1.4,4.6C1013.5,620.8,1015.1,615.7,1012.7,615.2 M972.7,616.6
	C973.4,617.4,973.4,617.4,972.7,616.6 M1019.2,618c-0.5,8.1-0.1,16.3-0.2,24.5c1.7-0.4,3.5-0.4,5.3,0c-0.4-1.9,0-3,1.2-3.5
	c0.3,1.9-0.2,4.9,2.8,3.9c0.4-4.9,0.2-9.8-0.7-14.7c0.9-4,1.3-9.2-1.9-12.2c-0.2,5.8,0.2,11.7-0.1,17.5l-1.2,0
	c-0.3-5.7,0.1-11.4,0-17.1C1022.6,616.9,1020.9,617.4,1019.2,618 M991.4,618.1c-1,2.6-0.9,5.9,0,8.4
	C993.2,625.2,993.2,619.4,991.4,618.1 M1008.7,617.9c-1.9,0.2-2.6,3.7-0.3,3.9C1010.2,621.6,1010.8,618,1008.7,617.9 M1033.9,618.1
	c-1.2,1.7-0.9,2.7,0.9,3C1035.9,619.4,1035.6,618.5,1033.9,618.1 M988.6,620.6c-2.1,0.6-1.4,3.7,0.1,4.6
	C990.5,624.8,990.3,621,988.6,620.6 M1004.6,620.8c-1.2,1.6-0.9,2.6,0.9,3C1006.6,622.1,1006.3,621.1,1004.6,620.8 M1015.1,620.3
	c-0.2,7.6-0.2,15.3,0,22.9c3.5-2.1,2.6-18.7,2.4-22.9C1016.9,620.3,1015.7,620.3,1015.1,620.3 M972.7,623.3
	C973.4,624,973.4,624,972.7,623.3 M984.7,623.4c-0.8,1.9-1.5,6.1,0.5,7.1C986,628.6,986.7,624.5,984.7,623.4 M1011.1,623
	c-0.2,6.6-0.2,13.3,0,20c0.6,0,1.8,0,2.5,0c0.2-6.7,0.2-13.3,0-20C1012.9,623,1011.7,623,1011.1,623 M1039.3,623.2
	c-0.3,3.4-1.3,6.7-1.5,10.1c0.8,1.3,2.1,1.9,3.6,1.7c0.7-4,0.4-8.3,3-11.6C1042.7,623.5,1041,623.4,1039.3,623.2 M965.7,625.6
	c-0.2,2.2-0.2,4.4,0,6.6c0.6,0,1.9,0,2.5,0c0.1-2.2,0.1-4.4,0-6.6C967.6,625.7,966.4,625.6,965.7,625.6 M972.7,626
	C973.4,626.7,973.4,626.7,972.7,626 M1007.2,627.3c-0.4,5.2-0.3,10.4-0.1,15.6c0.6,0,1.8,0,2.4,0c0.2-5.9,0.2-11.7,0-17.5
	C1009,625.9,1007.8,626.8,1007.2,627.3 M1033.9,626.1c-1.2,1.7-0.9,2.7,0.9,3C1035.9,627.5,1035.6,626.5,1033.9,626.1 M980.7,627.4
	c-0.8,1.9-1.5,6.1,0.5,7.1C982,632.6,982.7,628.5,980.7,627.4 M959.3,631.5c-0.5,2-0.4,4.1-0.4,6.1c1.8-0.9,3.4-2.1,5.1-3.2
	c0.5-2,0.4-4.1,0.4-6.1C962.6,629.2,961,630.4,959.3,631.5 M1004.4,628.3c-0.2,4.9-0.2,9.7,0,14.6l1.2,0c0.2-4.9,0.1-9.7,0-14.6
	L1004.4,628.3 M1034,631.3C1034.7,632,1034.7,632,1034,631.3 M955,640.2c0.7,0,2,0.1,2.6,0.1c0.1-2.3,0.1-4.6,0-6.9
	C954.5,634.4,954.8,637.6,955,640.2 M988.5,634C986.4,638,992.8,634.2,988.5,634 M965.4,640.3c-0.4-0.6-1.1-1.9-1.4-2.5
	c-4.4,6.4-7.9,3-9.1,14.6c1.7-0.4,2.1-2.3,3.2-3.5c0.6,0.1,1.7,0.1,2.2,0.2c0-0.9,0.1-2.8,0.1-3.7c0.4,0.6,1.3,1.9,1.7,2.5
	c2.1-1.2,4.2-2.5,5.9-4.1c0.5-3,0.3-6.1,0.2-9.1C965.8,635.5,965.9,638.2,965.4,640.3 M948,641c-5.1,1.3-7.5,6.9-12.8,7.8
	c-0.4,2.5-0.3,5.1-0.2,7.7c2.2-0.9,1.5-4.8,3.6-5.2c0.2,0.6,0.5,1.7,0.7,2.2c2-3.3,5.4-5,8.4-7.2c0.2-0.7,0.6-2.2,0.8-2.9
	c1.2,0.3,2.5,0.5,3.8,0.8c0.1-2.3,0.1-4.5,0-6.8C950.5,638.2,950.1,640.8,948,641 M1000.7,638C1001.4,638.7,1001.4,638.7,1000.7,638
	 M1034,639.3C1034.7,640,1034.7,640,1034,639.3 M988.7,642C989.4,642.7,989.4,642.7,988.7,642 M974,646
	C974.7,646.7,974.7,646.7,974,646 M980.7,646.1c-0.9,2.1-0.9,5,0,7.2C982.6,652.3,982.6,646.9,980.7,646.1 M1003.1,645.4
	c0.4,2.8,1,5.6,1.5,8.4c0.4-0.6,1.2-1.9,1.5-2.5c1.2,0.7,2.3,1.6,3.5,2.4c0-2.7,0.1-5.4-0.1-8.1c-1.7-0.1-2.6,0.7-2.9,2.4
	C1005.2,647.5,1005.1,645.1,1003.1,645.4 M1011.1,645.8c-0.2,2.7-0.2,5.4-0.1,8.1c1.3-0.8,2.1-2.1,3.1-3.2c3-0.9,5.9-2.3,7.7-4.9
	C1018.3,645.5,1014.7,645.5,1011.1,645.8 M949.7,656.5c4.1-1.5,2.4-6.4,2.6-9.7C948.2,648.2,949.9,653.2,949.7,656.5 M978,647.2
	c-2.1,0.6-2.8,4.6-0.4,5.2C979.7,651.9,980.1,647.7,978,647.2 M1033.9,647.6c-0.9,1.2-1,3.9,0.8,4.5
	C1036.9,651.6,1036,647,1033.9,647.6 M965.9,648.8c-1.2,1.7-0.9,2.6,0.9,3C967.9,650.1,967.6,649.1,965.9,648.8 M992.7,648.7
	c-1.9-0.4-4.7,3.3-1.6,3.3C993.4,653,995.2,649.4,992.7,648.7 M1020.2,652.3c2.7,0.1,5.4,0.1,8.2-0.1c0-1,0-2.9-0.1-3.9
	C1024.8,647.5,1021.6,649,1020.2,652.3 M931.5,662.3c-0.2,0.7-0.5,2.2-0.7,3c-1.3-0.3-2.5-0.7-3.7-0.9c-0.1,2.2-0.1,4.5-0.1,6.7
	c-1.3-0.8-1.8-2.2-1.6-4.3c-0.5,0.5-1.7,1.4-2.2,1.9c-0.5,5.2,0,10.5-0.1,15.7c0,4.1-1.8,7.9-1.5,12c1.6-0.3,2.1-2.2,3.2-3.3
	c5.6,0.6,2.9-6.8,3.7-10.1h1.2c0.1,2.7,0,5.5,0.1,8.2c0.6-0.5,1.9-1.5,2.5-1.9c-0.5-6.1,0-12.2,0.1-18.3c1.3,0.7,1.8,2,1.7,4
	c2.6,0.8,2.2-1.6,2.5-3.3c3,0.3,5.5-1.9,7.6-3.7c0.9-1.9-1-6.1,1.5-6.3c0,1.8,0.1,3.6,0.1,5.4l1-0.4c1.5-5.6,2-11.4,1.6-17.1
	C942.7,653.7,937.8,659,931.5,662.3 M974,649.8c-1.8,1-1.9,1.9-0.2,2.7C975.6,651.6,975.6,650.7,974,649.8 M930.6,654.1
	c-4.6-0.7-3.6,4.7-3.6,7.7c1.5-0.5,2-2.2,3.1-3.3c4.5,0.8,3.6-4.7,3.6-7.6C932.1,651.3,931.6,653,930.6,654.1 M962,652.6
	C962.7,653.4,962.7,653.4,962,652.6 M1000.7,652.6C1001.4,653.4,1001.4,653.4,1000.7,652.6 M1030,655.3
	C1030.7,656,1030.7,656,1030,655.3 M923,664.5c3.8-1.1,2.6-5.4,2.7-8.4C921.9,657.2,923.1,661.5,923,664.5 M946.1,670.1
	c-0.8,2.3-1.5,6.9,0.5,8.4C947.3,676.2,948.1,671.6,946.1,670.1 M908.6,679.4c-0.5,2.4-0.4,5-0.2,7.4c3.9,0.3,7.9,0.3,11.8,0
	c0.3-5.3,0.2-10.6,0.1-15.9C916,673.2,911.7,675.7,908.6,679.4 M941.8,672.3c-0.2,3.2-0.2,6.3,0,9.5c4-1.5,2.3-6.3,2.5-9.5
	C943.6,672.3,942.4,672.3,941.8,672.3 M934.4,682.2c0.6,1.5-0.3,4.4,1.9,4.9c0-1.9,0-3.8,0.1-5.7c0.9,1.3,1.9,3.1,3.9,2.9
	c0.2-3.1,0.2-6.3,0.1-9.4C937.8,676.6,933.4,678.5,934.4,682.2 M941.7,687c0.9,0,2.7-0.1,3.6-0.1c0.8-1.7,1.4-3.5,1.9-5.3
	C945,682.8,940.8,683.5,941.7,687 M935.5,690c-4.7,3.4-9.7,6.4-13.6,10.7c-0.5,2.6-0.3,5.2-0.2,7.8c2.7-1.7,2.1-5.2,3.1-7.8
	c2.8-2.3,6.6-1.5,10-2c0.2-2.1,0.3-4.1,0.5-6.1c3.2-2.2,8.2,1.2,10.6-2.9C942.5,689.6,938.9,689.2,935.5,690 M550,708.6
	C550.7,709.4,550.7,709.4,550,708.6 M1305.9,771.5c-1.2,1.7-0.9,2.7,0.9,3C1307.9,772.8,1307.6,771.8,1305.9,771.5 M1416.6,774.6
	c-55.3,4.9-35.5,3.1-56.3,1c-5.6,1-22,1-25.1,2.7c-4-0.6-8.1-2-12.1-0.5c4.3,7.6,7.1,16.5,4.2,25.2c2.3,0.1,4.7-0.2,7,0.4
	c2.5,4.8,8,6.3,11.6,10.1c1.7,2.2,3.6-0.3,5.2-1.2c10.2,2.8,36.1,7.6,46.2,9.7c13.4,2.8,7,8.4,29,2.2c-3-8.7-3.3-18.9,1.9-26.9
	c-0.1-4-2.3-8.5,1.8-11.6c0.8,0,2.5,0,3.3,0c2.6,9.4-1,7,0.6,20.8c2.9,2.9,6.8,4.7,9.4,8.1c1.4,1.2,2.1,3.3,4,3.9
	c22.7-4.6,29.7-15.1,42.9,5.2c3.7,0.8,10.3-11.1,14.5-16.4c5.6-6.3,4-16,10-22.1c3.4-3.1,1-7.9,0-11.5c-4.9,0.5-9.8-0.8-14.5,0.7
	c-5.7-0.4-11.5-1.1-17.2,0.2c-8.4,0.5-16.8-0.1-25.3,0.2c-6.5,0.3-13,1.7-19.4,1c-0.2-0.5-0.7-1.6-0.9-2.1c-1.5,0.7-2.7,2.5-4.5,1.9
	C1427.5,774.6,1422,775,1416.6,774.6 M1320.8,803.2c0.3,1.7,1.3,2,3,0.9C1323.5,802.3,1322.5,802,1320.8,803.2 M1328.9,804.5
	c-0.5,1.6,1.7,3.8,3.3,3.3C1333.2,806,1330.6,803.4,1328.9,804.5 M1315.3,808.5c-1.9,0.2-2.6,3.7-0.3,3.9
	C1316.9,812.3,1317.5,808.6,1315.3,808.5 M2183.2,848.6c-2.3,0.5-0.9,3.5,1.1,2.6C2186.5,850.9,2184.9,847.8,2183.2,848.6 M2086,850
	C2086.7,850.7,2086.7,850.7,2086,850 M2068.7,858C2069.4,858.7,2069.4,858.7,2068.7,858 M2572.5,879.2c0.2,2.2,0.8,4.3,1.5,6.4
	c1.9-1.1,3.7-2.4,5.1-4c-0.5-1.4-1-2.7-1.7-3.9C2575.5,877.7,2574,878.6,2572.5,879.2 M2539.1,896.9c-4.1,7.1,4.7,9.3,4.1-0.2
	C2541.8,896.6,2540.4,896.6,2539.1,896.9 M2355.5,898.1c-2.1,1.7,0.5,4.7,2.2,2.2C2360.2,898.6,2357.1,896,2355.5,898.1 M2546,897.9
	c-1.8,0.6-2.5,3.2-1.4,4.6C2546.9,903.5,2548.4,898.3,2546,897.9 M2555.3,899.2c-1,0.8-1.9,1.7-2.7,2.7c0.2,2.6,0.9,5.1,1.4,7.7
	c4.8-0.5,9.5-2.5,14.4-1.5C2568.1,897.4,2560.3,901,2555.3,899.2 M2548.6,901.7c-0.1,0.9-0.2,2.8-0.3,3.7c-1.3-1.1-2.6-1.4-3.9-1.1
	c-1.1,3.7,4.3,4.2,6.4,2.3c0.2-1.7,0.2-3.3,0.2-5C2550.4,901.7,2549.2,901.7,2548.6,901.7 M2575.1,903c-0.2,1.7-0.2,3.5,0,5.3
	c2.2,0.1,4.4,0.1,6.6,0C2583,903.8,2578.7,902,2575.1,903 M1566,931.3C1566.7,932,1566.7,932,1566,931.3z"/>
</svg>
