<?xml version='1.0' encoding='iso-8859-1'?>
<!DOCTYPE svg PUBLIC '-//W3C//DTD SVG 1.1//EN' 'http://www.w3.org/Graphics/SVG/1.1/DTD/svg11.dtd'>
<!-- Uploaded to: SVG Repo, www.svgrepo.com, Generator: SVG Repo Mixer Tools -->
<svg fill="#92253f" height="800px" width="800px" version="1.1" xmlns="http://www.w3.org/2000/svg" viewBox="0 0 280.814 280.814" xmlns:xlink="http://www.w3.org/1999/xlink" enable-background="new 0 0 280.814 280.814">
  <g>
    <path d="m269.903,225.722l-82.954-96.756v-42.966-14.667c0-3.313-2.687-6-6-6s-6,2.687-6,6v8.667h-4.712v-68h2.111c3.313,0 6-2.687 6-6s-2.687-6-6-6h-156.882c-3.313,0-6,2.687-6,6s2.687,6 6,6h4.883v210.884h-4.883c-3.313,0-6,2.687-6,6s2.687,6 6,6h22c3.313,0 6-2.687 6-6s-2.687-6-6-6h-5.117v-210.884h52.661v68h-4.712v-8.667c0-3.313-2.687-6-6-6s-6,2.687-6,6v14.667 138c0,3.313 2.687,6 6,6s6-2.687 6-6v-86.814h13.825v127.814c0,3.313 2.687,6 6,6h55c3.313,0 6-2.687 6-6v-127.814h13.825v39.186 50.395c0,3.313 2.687,6 6,6s6-2.687 6-6v-34.179l73.845,86.131c1.162,1.356 2.838,2.095 4.556,2.095 0.697,0 1.401-0.122 2.081-0.374 2.354-0.871 3.918-3.116 3.918-5.627v-45.186c0-1.432-0.512-2.817-1.445-3.905zm-172.893-213.722h61.227v68h-61.227v-68zm-16.711,80h94.65v33.186h-19.825-55-19.825v-33.186zm25.825,109.651v-7.116h43v7.116h-43zm43,12v7.116h-43v-7.116h43zm-43-31.116v-7.116h43v7.116h-43zm0,50.232h43v7.117h-43v-7.117zm43-69.349h-43v-7.116h43v7.116zm-43,95.582v-7.116h43v7.116h-43zm43-114.698h-43v-7.116h43v7.116zm110.224,114.295l-72.399-84.445v-26.75l72.399,84.445v26.75z"/>
  </g>
</svg>